<?xml version="1.0" encoding="UTF-8" standalone="no"?>
<!DOCTYPE svg PUBLIC "-//W3C//DTD SVG 1.1//EN"
 "http://www.w3.org/Graphics/SVG/1.1/DTD/svg11.dtd">
<!-- Generated by graphviz version 2.40.1 (20161225.0304)
 -->
<!-- Title: %3 Pages: 1 -->
<svg width="420pt" height="791pt"
 viewBox="0.00 0.00 419.50 791.00" xmlns="http://www.w3.org/2000/svg" xmlns:xlink="http://www.w3.org/1999/xlink">
<g id="graph0" class="graph" transform="scale(1 1) rotate(0) translate(4 787)">
<title>%3</title>
<polygon fill="#ffffff" stroke="transparent" points="-4,4 -4,-787 415.5,-787 415.5,4 -4,4"/>
<!-- Synchro0 -->
<g id="node1" class="node">
<title>Synchro0</title>
<polygon fill="#8b0000" stroke="#000000" points="198,-736.3162 198,-758.6838 182.1838,-774.5 159.8162,-774.5 144,-758.6838 144,-736.3162 159.8162,-720.5 182.1838,-720.5 198,-736.3162"/>
<text text-anchor="middle" x="171" y="-743.8" font-family="Times,serif" font-size="14.00" fill="#ffffff">main</text>
</g>
<!-- 1 -->
<g id="node2" class="node">
<title>1</title>
<ellipse fill="#0000ff" stroke="#000000" cx="27" cy="-666" rx="27" ry="27"/>
<text text-anchor="middle" x="27" y="-662.3" font-family="Times,serif" font-size="14.00" fill="#ffffff">1</text>
</g>
<!-- Synchro0&#45;&gt;1 -->
<g id="edge1" class="edge">
<title>Synchro0&#45;&gt;1</title>
<path fill="none" stroke="#000000" d="M144.5525,-735.7503C122.2457,-725.4676 89.7675,-709.6117 63,-693 60.8509,-691.6663 58.6696,-690.2381 56.4987,-688.7607"/>
<polygon fill="#000000" stroke="#000000" points="58.4461,-685.8509 48.2665,-682.9138 54.3927,-691.5579 58.4461,-685.8509"/>
</g>
<!-- 3 -->
<g id="node4" class="node">
<title>3</title>
<ellipse fill="#0000ff" stroke="#000000" cx="99" cy="-666" rx="27" ry="27"/>
<text text-anchor="middle" x="99" y="-662.3" font-family="Times,serif" font-size="14.00" fill="#ffffff">3</text>
</g>
<!-- Synchro0&#45;&gt;3 -->
<g id="edge3" class="edge">
<title>Synchro0&#45;&gt;3</title>
<path fill="none" stroke="#000000" d="M152.8314,-726.9341C143.9814,-716.9165 133.2081,-704.7216 123.631,-693.8809"/>
<polygon fill="#000000" stroke="#000000" points="126.1573,-691.4541 116.9134,-686.277 120.9112,-696.0886 126.1573,-691.4541"/>
</g>
<!-- 5 -->
<g id="node6" class="node">
<title>5</title>
<ellipse fill="#0000ff" stroke="#000000" cx="171" cy="-666" rx="27" ry="27"/>
<text text-anchor="middle" x="171" y="-662.3" font-family="Times,serif" font-size="14.00" fill="#ffffff">5</text>
</g>
<!-- Synchro0&#45;&gt;5 -->
<g id="edge5" class="edge">
<title>Synchro0&#45;&gt;5</title>
<path fill="none" stroke="#000000" d="M171,-720.3617C171,-714.8629 171,-708.9905 171,-703.2137"/>
<polygon fill="#000000" stroke="#000000" points="174.5001,-703.0198 171,-693.0198 167.5001,-703.0198 174.5001,-703.0198"/>
</g>
<!-- 7 -->
<g id="node8" class="node">
<title>7</title>
<ellipse fill="#0000ff" stroke="#000000" cx="243" cy="-666" rx="27" ry="27"/>
<text text-anchor="middle" x="243" y="-662.3" font-family="Times,serif" font-size="14.00" fill="#ffffff">7</text>
</g>
<!-- Synchro0&#45;&gt;7 -->
<g id="edge7" class="edge">
<title>Synchro0&#45;&gt;7</title>
<path fill="none" stroke="#000000" d="M189.1686,-726.9341C198.0186,-716.9165 208.7919,-704.7216 218.369,-693.8809"/>
<polygon fill="#000000" stroke="#000000" points="221.0888,-696.0886 225.0866,-686.277 215.8427,-691.4541 221.0888,-696.0886"/>
</g>
<!-- Synchro1 -->
<g id="node14" class="node">
<title>Synchro1</title>
<polygon fill="#ff0000" stroke="#000000" points="294,-15.8162 294,-38.1838 278.1838,-54 255.8162,-54 240,-38.1838 240,-15.8162 255.8162,0 278.1838,0 294,-15.8162"/>
<text text-anchor="middle" x="267" y="-23.3" font-family="Times,serif" font-size="14.00" fill="#ffffff">sync</text>
</g>
<!-- Synchro0&#45;&gt;Synchro1 -->
<g id="edge16" class="edge">
<title>Synchro0&#45;&gt;Synchro1</title>
<path fill="none" stroke="#000000" d="M189.0716,-726.6688C194.67,-721.242 201.1749,-715.8455 208,-712 247.1373,-689.9489 298,-710.9219 298,-666 298,-666 298,-666 298,-114 298,-95.8085 291.9114,-76.6538 285.1309,-60.9626"/>
<polygon fill="#000000" stroke="#000000" points="288.2219,-59.3066 280.8679,-51.6797 281.8606,-62.228 288.2219,-59.3066"/>
</g>
<!-- 2 -->
<g id="node3" class="node">
<title>2</title>
<ellipse fill="#ffffff" stroke="#000000" cx="29" cy="-579" rx="27" ry="27"/>
<text text-anchor="middle" x="29" y="-575.3" font-family="Times,serif" font-size="14.00" fill="#000000">2</text>
</g>
<!-- 1&#45;&gt;2 -->
<g id="edge2" class="edge">
<title>1&#45;&gt;2</title>
<path fill="none" stroke="#000000" d="M27.6218,-638.9496C27.7874,-631.748 27.9692,-623.841 28.1448,-616.1991"/>
<polygon fill="#000000" stroke="#000000" points="31.6477,-616.1115 28.3785,-606.0337 24.6495,-615.9506 31.6477,-616.1115"/>
<text text-anchor="middle" x="43" y="-618.8" font-family="Times,serif" font-size="14.00" fill="#000000">d2v2</text>
</g>
<!-- 9 -->
<g id="node10" class="node">
<title>9</title>
<ellipse fill="#ff0000" stroke="#000000" cx="35" cy="-453" rx="27" ry="27"/>
<text text-anchor="middle" x="35" y="-449.3" font-family="Times,serif" font-size="14.00" fill="#000000">9</text>
</g>
<!-- 2&#45;&gt;9 -->
<g id="edge9" class="edge">
<title>2&#45;&gt;9</title>
<path fill="none" stroke="#000000" d="M30.2872,-551.9698C31.1453,-533.9493 32.2846,-510.0239 33.228,-490.2112"/>
<polygon fill="#000000" stroke="#000000" points="36.7353,-490.1406 33.715,-479.9855 29.7432,-489.8076 36.7353,-490.1406"/>
<text text-anchor="middle" x="48" y="-512.3" font-family="Times,serif" font-size="14.00" fill="#000000">d3v2</text>
</g>
<!-- 4 -->
<g id="node5" class="node">
<title>4</title>
<ellipse fill="#ffffff" stroke="#000000" cx="99" cy="-516" rx="27" ry="27"/>
<text text-anchor="middle" x="99" y="-512.3" font-family="Times,serif" font-size="14.00" fill="#000000">4</text>
</g>
<!-- 3&#45;&gt;4 -->
<g id="edge4" class="edge">
<title>3&#45;&gt;4</title>
<path fill="none" stroke="#000000" d="M99,-638.8361C99,-614.9114 99,-579.8406 99,-553.2911"/>
<polygon fill="#000000" stroke="#000000" points="102.5001,-553.2148 99,-543.2148 95.5001,-553.2148 102.5001,-553.2148"/>
<text text-anchor="middle" x="113.5" y="-618.8" font-family="Times,serif" font-size="14.00" fill="#000000">d5v2</text>
</g>
<!-- 10 -->
<g id="node11" class="node">
<title>10</title>
<ellipse fill="#ff0000" stroke="#000000" cx="99" cy="-327" rx="27" ry="27"/>
<text text-anchor="middle" x="99" y="-323.3" font-family="Times,serif" font-size="14.00" fill="#000000">10</text>
</g>
<!-- 4&#45;&gt;10 -->
<g id="edge11" class="edge">
<title>4&#45;&gt;10</title>
<path fill="none" stroke="#000000" d="M99,-488.9209C99,-456.22 99,-401.0445 99,-364.3242"/>
<polygon fill="#000000" stroke="#000000" points="102.5001,-364.0288 99,-354.0289 95.5001,-364.0289 102.5001,-364.0288"/>
<text text-anchor="middle" x="113.5" y="-449.3" font-family="Times,serif" font-size="14.00" fill="#000000">d6v2</text>
</g>
<!-- 6 -->
<g id="node7" class="node">
<title>6</title>
<ellipse fill="#ffffff" stroke="#000000" cx="171" cy="-390" rx="27" ry="27"/>
<text text-anchor="middle" x="171" y="-386.3" font-family="Times,serif" font-size="14.00" fill="#000000">6</text>
</g>
<!-- 5&#45;&gt;6 -->
<g id="edge6" class="edge">
<title>5&#45;&gt;6</title>
<path fill="none" stroke="#000000" d="M171,-638.7807C171,-589.0809 171,-483.5853 171,-427.2641"/>
<polygon fill="#000000" stroke="#000000" points="174.5001,-427.0153 171,-417.0154 167.5001,-427.0154 174.5001,-427.0153"/>
<text text-anchor="middle" x="185" y="-575.3" font-family="Times,serif" font-size="14.00" fill="#000000">d8v2</text>
</g>
<!-- 11 -->
<g id="node12" class="node">
<title>11</title>
<ellipse fill="#ff0000" stroke="#000000" cx="171" cy="-201" rx="27" ry="27"/>
<text text-anchor="middle" x="171" y="-197.3" font-family="Times,serif" font-size="14.00" fill="#000000">11</text>
</g>
<!-- 6&#45;&gt;11 -->
<g id="edge13" class="edge">
<title>6&#45;&gt;11</title>
<path fill="none" stroke="#000000" d="M171,-362.9209C171,-330.22 171,-275.0445 171,-238.3242"/>
<polygon fill="#000000" stroke="#000000" points="174.5001,-238.0288 171,-228.0289 167.5001,-238.0289 174.5001,-238.0288"/>
<text text-anchor="middle" x="185.5" y="-323.3" font-family="Times,serif" font-size="14.00" fill="#000000">d9v2</text>
</g>
<!-- 8 -->
<g id="node9" class="node">
<title>8</title>
<ellipse fill="#ffffff" stroke="#000000" cx="237" cy="-264" rx="27" ry="27"/>
<text text-anchor="middle" x="237" y="-260.3" font-family="Times,serif" font-size="14.00" fill="#000000">8</text>
</g>
<!-- 7&#45;&gt;8 -->
<g id="edge8" class="edge">
<title>7&#45;&gt;8</title>
<path fill="none" stroke="#000000" d="M241.1171,-638.9746C240.0797,-621.8066 239,-599.1098 239,-579 239,-579 239,-579 239,-390 239,-360.1369 238.4314,-326.2975 237.9005,-301.2124"/>
<polygon fill="#000000" stroke="#000000" points="241.3958,-300.9554 237.6771,-291.0347 234.3975,-301.1091 241.3958,-300.9554"/>
<text text-anchor="middle" x="256.5" y="-512.3" font-family="Times,serif" font-size="14.00" fill="#000000">d11v2</text>
</g>
<!-- 12 -->
<g id="node13" class="node">
<title>12</title>
<ellipse fill="#ff0000" stroke="#000000" cx="235" cy="-114" rx="27" ry="27"/>
<text text-anchor="middle" x="235" y="-110.3" font-family="Times,serif" font-size="14.00" fill="#000000">12</text>
</g>
<!-- 8&#45;&gt;12 -->
<g id="edge15" class="edge">
<title>8&#45;&gt;12</title>
<path fill="none" stroke="#000000" d="M236.6378,-236.8361C236.3188,-212.9114 235.8512,-177.8406 235.4972,-151.2911"/>
<polygon fill="#000000" stroke="#000000" points="238.996,-151.1672 235.3629,-141.2148 231.9966,-151.2606 238.996,-151.1672"/>
<text text-anchor="middle" x="253.5" y="-197.3" font-family="Times,serif" font-size="14.00" fill="#000000">d12v2</text>
</g>
<!-- 9&#45;&gt;10 -->
<g id="edge10" class="edge">
<title>9&#45;&gt;10</title>
<path fill="none" stroke="#000000" d="M33.4751,-425.9174C33.6462,-406.9947 36.4515,-381.8449 48,-363 52.4197,-355.7879 58.8848,-349.6273 65.7373,-344.5473"/>
<polygon fill="#000000" stroke="#000000" points="68.1292,-347.1586 74.4996,-338.6929 64.2403,-341.3382 68.1292,-347.1586"/>
<text text-anchor="middle" x="66.5" y="-386.3" font-family="Times,serif" font-size="14.00" fill="#000000">d14v2</text>
</g>
<!-- 10&#45;&gt;11 -->
<g id="edge12" class="edge">
<title>10&#45;&gt;11</title>
<path fill="none" stroke="#000000" d="M100.7029,-299.8104C103.0111,-280.8372 108.4104,-255.6711 121,-237 125.5831,-230.203 131.9034,-224.2491 138.51,-219.2428"/>
<polygon fill="#000000" stroke="#000000" points="140.6945,-221.9874 146.9222,-213.4161 136.7087,-216.2329 140.6945,-221.9874"/>
<text text-anchor="middle" x="139" y="-260.3" font-family="Times,serif" font-size="14.00" fill="#000000">d15v2</text>
</g>
<!-- 11&#45;&gt;12 -->
<g id="edge14" class="edge">
<title>11&#45;&gt;12</title>
<path fill="none" stroke="#000000" d="M174.8062,-174.0932C176.8786,-165.8461 180.0745,-157.0873 185,-150 189.6784,-143.2682 196.0369,-137.3405 202.6503,-132.3389"/>
<polygon fill="#000000" stroke="#000000" points="204.8345,-135.0834 211.0562,-126.5078 200.8446,-129.3318 204.8345,-135.0834"/>
<text text-anchor="middle" x="203" y="-153.8" font-family="Times,serif" font-size="14.00" fill="#000000">d16v2</text>
</g>
<!-- 12&#45;&gt;Synchro1 -->
<g id="edge17" class="edge">
<title>12&#45;&gt;Synchro1</title>
<path fill="none" stroke="#000000" d="M241.2261,-87.4754C243.3786,-79.5023 246.0115,-70.8026 249,-63 249.1687,-62.5595 249.341,-62.1173 249.5167,-61.6736"/>
<polygon fill="#000000" stroke="#000000" points="252.819,-62.8556 253.5858,-52.2885 246.3966,-60.071 252.819,-62.8556"/>
<text text-anchor="middle" x="266.5" y="-66.8" font-family="Times,serif" font-size="14.00" fill="#000000">d17v2</text>
</g>
<!-- key -->
<g id="node15" class="node">
<title>key</title>
<polygon fill="none" stroke="#000000" points="225,-757.5 225,-778.5 394,-778.5 394,-757.5 225,-757.5"/>
<text text-anchor="start" x="276" y="-764.3" font-family="Times,serif" font-size="14.00" fill="#000000">wordcount.read_file</text>
<polygon fill="#0000ff" stroke="transparent" points="394,-757.5 394,-778.5 404,-778.5 404,-757.5 394,-757.5"/>
<polygon fill="none" stroke="#000000" points="394,-757.5 394,-778.5 404,-778.5 404,-757.5 394,-757.5"/>
<text text-anchor="start" x="397" y="-764.3" font-family="Times,serif" font-size="14.00" fill="#000000"> </text>
<polygon fill="none" stroke="#000000" points="225,-736.5 225,-757.5 394,-757.5 394,-736.5 225,-736.5"/>
<text text-anchor="start" x="263" y="-743.3" font-family="Times,serif" font-size="14.00" fill="#000000">wordcount.wordCount</text>
<polygon fill="#ffffff" stroke="transparent" points="394,-736.5 394,-757.5 404,-757.5 404,-736.5 394,-736.5"/>
<polygon fill="none" stroke="#000000" points="394,-736.5 394,-757.5 404,-757.5 404,-736.5 394,-736.5"/>
<text text-anchor="start" x="397" y="-743.3" font-family="Times,serif" font-size="14.00" fill="#000000"> </text>
<polygon fill="none" stroke="#000000" points="225,-715.5 225,-736.5 394,-736.5 394,-715.5 225,-715.5"/>
<text text-anchor="start" x="228" y="-722.3" font-family="Times,serif" font-size="14.00" fill="#000000">wordcount.merge_two_dicts</text>
<polygon fill="#ff0000" stroke="transparent" points="394,-715.5 394,-736.5 404,-736.5 404,-715.5 394,-715.5"/>
<polygon fill="none" stroke="#000000" points="394,-715.5 394,-736.5 404,-736.5 404,-715.5 394,-715.5"/>
<text text-anchor="start" x="397" y="-722.3" font-family="Times,serif" font-size="14.00" fill="#000000"> </text>
</g>
</g>
</svg>
