<?xml version="1.0" encoding="UTF-8" standalone="no"?>
<!DOCTYPE svg PUBLIC "-//W3C//DTD SVG 1.1//EN"
 "http://www.w3.org/Graphics/SVG/1.1/DTD/svg11.dtd">
<!-- Generated by graphviz version 2.40.1 (20161225.0304)
 -->
<!-- Title: %3 Pages: 1 -->
<svg width="874pt" height="845pt"
 viewBox="0.00 0.00 874.00 845.00" xmlns="http://www.w3.org/2000/svg" xmlns:xlink="http://www.w3.org/1999/xlink">
<g id="graph0" class="graph" transform="scale(1 1) rotate(0) translate(4 841)">
<title>%3</title>
<polygon fill="#ffffff" stroke="transparent" points="-4,4 -4,-841 870,-841 870,4 -4,4"/>
<!-- Synchro0 -->
<g id="node1" class="node">
<title>Synchro0</title>
<polygon fill="#8b0000" stroke="#000000" points="455,-748.3162 455,-770.6838 439.1838,-786.5 416.8162,-786.5 401,-770.6838 401,-748.3162 416.8162,-732.5 439.1838,-732.5 455,-748.3162"/>
<text text-anchor="middle" x="428" y="-755.8" font-family="Times,serif" font-size="14.00" fill="#ffffff">main</text>
</g>
<!-- 1 -->
<g id="node2" class="node">
<title>1</title>
<ellipse fill="#0000ff" stroke="#000000" cx="169" cy="-636" rx="27" ry="27"/>
<text text-anchor="middle" x="169" y="-632.3" font-family="Times,serif" font-size="14.00" fill="#ffffff">1</text>
</g>
<!-- Synchro0&#45;&gt;1 -->
<g id="edge1" class="edge">
<title>Synchro0&#45;&gt;1</title>
<path fill="none" stroke="#000000" d="M401.7404,-746.9785C354.4025,-724.4062 254.8367,-676.9298 202.6057,-652.0243"/>
<polygon fill="#000000" stroke="#000000" points="203.9599,-648.7926 193.4271,-647.6477 200.947,-655.111 203.9599,-648.7926"/>
</g>
<!-- 9 -->
<g id="node10" class="node">
<title>9</title>
<ellipse fill="#0000ff" stroke="#000000" cx="428" cy="-636" rx="27" ry="27"/>
<text text-anchor="middle" x="428" y="-632.3" font-family="Times,serif" font-size="14.00" fill="#ffffff">9</text>
</g>
<!-- Synchro0&#45;&gt;9 -->
<g id="edge13" class="edge">
<title>Synchro0&#45;&gt;9</title>
<path fill="none" stroke="#000000" d="M428,-732.3974C428,-715.0235 428,-692.2392 428,-673.184"/>
<polygon fill="#000000" stroke="#000000" points="431.5001,-673.0393 428,-663.0394 424.5001,-673.0394 431.5001,-673.0393"/>
</g>
<!-- 17 -->
<g id="node18" class="node">
<title>17</title>
<ellipse fill="#0000ff" stroke="#000000" cx="686" cy="-636" rx="27" ry="27"/>
<text text-anchor="middle" x="686" y="-632.3" font-family="Times,serif" font-size="14.00" fill="#ffffff">17</text>
</g>
<!-- Synchro0&#45;&gt;17 -->
<g id="edge25" class="edge">
<title>Synchro0&#45;&gt;17</title>
<path fill="none" stroke="#000000" d="M434.0047,-732.2624C439.1502,-715.311 448.3031,-694.4391 464,-682 492.1837,-659.6656 593.2343,-645.779 648.7738,-639.6593"/>
<polygon fill="#000000" stroke="#000000" points="649.3434,-643.1184 658.9134,-638.5726 648.5974,-636.1582 649.3434,-643.1184"/>
</g>
<!-- 2 -->
<g id="node3" class="node">
<title>2</title>
<ellipse fill="#ffffff" stroke="#000000" cx="27" cy="-549" rx="27" ry="27"/>
<text text-anchor="middle" x="27" y="-545.3" font-family="Times,serif" font-size="14.00" fill="#000000">2</text>
</g>
<!-- 1&#45;&gt;2 -->
<g id="edge2" class="edge">
<title>1&#45;&gt;2</title>
<path fill="none" stroke="#000000" d="M142.4384,-630.8837C111.2219,-624.4044 61.9051,-612.5618 48,-600 43.4481,-595.8879 39.8594,-590.6401 37.0367,-585.0826"/>
<polygon fill="#000000" stroke="#000000" points="40.1246,-583.4017 32.9749,-575.583 33.6883,-586.1538 40.1246,-583.4017"/>
<text text-anchor="middle" x="62" y="-588.8" font-family="Times,serif" font-size="14.00" fill="#000000">d2v2</text>
</g>
<!-- 3 -->
<g id="node4" class="node">
<title>3</title>
<ellipse fill="#ff0000" stroke="#000000" cx="90" cy="-462" rx="27" ry="27"/>
<text text-anchor="middle" x="90" y="-458.3" font-family="Times,serif" font-size="14.00" fill="#000000">3</text>
</g>
<!-- 1&#45;&gt;3 -->
<g id="edge4" class="edge">
<title>1&#45;&gt;3</title>
<path fill="none" stroke="#000000" d="M146.1449,-621.2953C131.5401,-610.5893 113.5996,-594.7222 104,-576 91.9289,-552.4575 88.6096,-522.6962 88.2128,-499.4861"/>
<polygon fill="#000000" stroke="#000000" points="91.7128,-499.3297 88.2152,-489.3289 84.7128,-499.328 91.7128,-499.3297"/>
<text text-anchor="middle" x="118" y="-545.3" font-family="Times,serif" font-size="14.00" fill="#000000">d3v2</text>
</g>
<!-- 4 -->
<g id="node5" class="node">
<title>4</title>
<ellipse fill="#ff00ae" stroke="#000000" cx="136" cy="-375" rx="27" ry="27"/>
<text text-anchor="middle" x="136" y="-371.3" font-family="Times,serif" font-size="14.00" fill="#000000">4</text>
</g>
<!-- 1&#45;&gt;4 -->
<g id="edge6" class="edge">
<title>1&#45;&gt;4</title>
<path fill="none" stroke="#000000" d="M164.1092,-609.2022C159.6979,-584.336 153.2659,-546.2612 149,-513 144.6296,-478.9244 141.0908,-439.9378 138.8152,-412.1148"/>
<polygon fill="#000000" stroke="#000000" points="142.2948,-411.7193 138.0058,-402.0314 135.3173,-412.2794 142.2948,-411.7193"/>
<text text-anchor="middle" x="163" y="-501.8" font-family="Times,serif" font-size="14.00" fill="#000000">d3v2</text>
</g>
<!-- 5 -->
<g id="node6" class="node">
<title>5</title>
<ellipse fill="#b30000" stroke="#000000" cx="191" cy="-288" rx="27" ry="27"/>
<text text-anchor="middle" x="191" y="-284.3" font-family="Times,serif" font-size="14.00" fill="#ffffff">5</text>
</g>
<!-- 1&#45;&gt;5 -->
<g id="edge8" class="edge">
<title>1&#45;&gt;5</title>
<path fill="none" stroke="#000000" d="M178.9701,-610.5397C184.791,-593.4177 191,-570.1883 191,-549 191,-549 191,-549 191,-375 191,-358.6781 191,-340.6337 191,-325.2293"/>
<polygon fill="#000000" stroke="#000000" points="194.5001,-325.0401 191,-315.0401 187.5001,-325.0402 194.5001,-325.0401"/>
<text text-anchor="middle" x="205" y="-458.3" font-family="Times,serif" font-size="14.00" fill="#000000">d3v2</text>
</g>
<!-- 6 -->
<g id="node7" class="node">
<title>6</title>
<ellipse fill="#ff00ae" stroke="#000000" cx="223" cy="-201" rx="27" ry="27"/>
<text text-anchor="middle" x="223" y="-197.3" font-family="Times,serif" font-size="14.00" fill="#000000">6</text>
</g>
<!-- 1&#45;&gt;6 -->
<g id="edge10" class="edge">
<title>1&#45;&gt;6</title>
<path fill="none" stroke="#000000" d="M192.8264,-622.7168C215.7648,-607.973 247,-581.863 247,-549 247,-549 247,-549 247,-288 247,-270.3915 242.3748,-251.4767 237.1853,-235.796"/>
<polygon fill="#000000" stroke="#000000" points="240.36,-234.274 233.7365,-226.0048 233.7576,-236.5996 240.36,-234.274"/>
<text text-anchor="middle" x="261" y="-414.8" font-family="Times,serif" font-size="14.00" fill="#000000">d3v2</text>
</g>
<!-- 2&#45;&gt;3 -->
<g id="edge3" class="edge">
<title>2&#45;&gt;3</title>
<path fill="none" stroke="#000000" d="M33.8047,-522.7828C36.7323,-514.3944 40.7234,-505.378 46,-498 49.7679,-492.7316 54.4954,-487.7985 59.443,-483.3752"/>
<polygon fill="#000000" stroke="#000000" points="61.8271,-485.945 67.2925,-476.8687 57.3599,-480.5557 61.8271,-485.945"/>
<text text-anchor="middle" x="61" y="-501.8" font-family="Times,serif" font-size="14.00" fill="#000000">d4v2</text>
</g>
<!-- 3&#45;&gt;4 -->
<g id="edge5" class="edge">
<title>3&#45;&gt;4</title>
<path fill="none" stroke="#000000" d="M93.5796,-435.0973C95.3668,-427.0269 98.0324,-418.3679 102,-411 103.917,-407.4401 106.2771,-403.9732 108.8529,-400.6852"/>
<polygon fill="#000000" stroke="#000000" points="111.6688,-402.7801 115.5704,-392.9298 106.3776,-398.1971 111.6688,-402.7801"/>
<text text-anchor="middle" x="116.5" y="-414.8" font-family="Times,serif" font-size="14.00" fill="#000000">d5v2</text>
</g>
<!-- 4&#45;&gt;5 -->
<g id="edge7" class="edge">
<title>4&#45;&gt;5</title>
<path fill="none" stroke="#000000" d="M139.6458,-348.0807C141.5741,-339.9226 144.5159,-331.2182 149,-324 152.1816,-318.8785 156.3287,-314.1038 160.7763,-309.8139"/>
<polygon fill="#000000" stroke="#000000" points="163.2358,-312.3118 168.4278,-303.0764 158.6097,-307.0583 163.2358,-312.3118"/>
<text text-anchor="middle" x="163" y="-327.8" font-family="Times,serif" font-size="14.00" fill="#000000">d7v2</text>
</g>
<!-- 5&#45;&gt;6 -->
<g id="edge9" class="edge">
<title>5&#45;&gt;6</title>
<path fill="none" stroke="#000000" d="M197.2261,-261.4754C199.3786,-253.5023 202.0115,-244.8026 205,-237 205.328,-236.1435 205.6698,-235.2803 206.0229,-234.4131"/>
<polygon fill="#000000" stroke="#000000" points="209.2939,-235.6702 210.1399,-225.1092 202.8927,-232.8375 209.2939,-235.6702"/>
<text text-anchor="middle" x="219" y="-240.8" font-family="Times,serif" font-size="14.00" fill="#000000">d8v2</text>
</g>
<!-- 7 -->
<g id="node8" class="node">
<title>7</title>
<ellipse fill="#00ff00" stroke="#000000" cx="223" cy="-114" rx="27" ry="27"/>
<text text-anchor="middle" x="223" y="-110.3" font-family="Times,serif" font-size="14.00" fill="#000000">7</text>
</g>
<!-- 6&#45;&gt;7 -->
<g id="edge11" class="edge">
<title>6&#45;&gt;7</title>
<path fill="none" stroke="#000000" d="M223,-173.9496C223,-166.748 223,-158.841 223,-151.1991"/>
<polygon fill="#000000" stroke="#000000" points="226.5001,-151.0337 223,-141.0337 219.5001,-151.0337 226.5001,-151.0337"/>
<text text-anchor="middle" x="240.5" y="-153.8" font-family="Times,serif" font-size="14.00" fill="#000000">d11v2</text>
</g>
<!-- 8 -->
<g id="node9" class="node">
<title>8</title>
<ellipse fill="#ffff00" stroke="#000000" cx="223" cy="-27" rx="27" ry="27"/>
<text text-anchor="middle" x="223" y="-23.3" font-family="Times,serif" font-size="14.00" fill="#000000">8</text>
</g>
<!-- 7&#45;&gt;8 -->
<g id="edge12" class="edge">
<title>7&#45;&gt;8</title>
<path fill="none" stroke="#000000" d="M223,-86.9496C223,-79.748 223,-71.841 223,-64.1991"/>
<polygon fill="#000000" stroke="#000000" points="226.5001,-64.0337 223,-54.0337 219.5001,-64.0337 226.5001,-64.0337"/>
<text text-anchor="middle" x="240.5" y="-66.8" font-family="Times,serif" font-size="14.00" fill="#000000">d12v2</text>
</g>
<!-- 10 -->
<g id="node11" class="node">
<title>10</title>
<ellipse fill="#ffffff" stroke="#000000" cx="302" cy="-549" rx="27" ry="27"/>
<text text-anchor="middle" x="302" y="-545.3" font-family="Times,serif" font-size="14.00" fill="#000000">10</text>
</g>
<!-- 9&#45;&gt;10 -->
<g id="edge14" class="edge">
<title>9&#45;&gt;10</title>
<path fill="none" stroke="#000000" d="M401.3282,-630.6238C371.822,-624.1554 326.8646,-612.584 315,-600 311.2949,-596.0702 308.6077,-591.2363 306.6659,-586.1251"/>
<polygon fill="#000000" stroke="#000000" points="309.914,-584.7571 303.7787,-576.1195 303.1884,-586.6979 309.914,-584.7571"/>
<text text-anchor="middle" x="333" y="-588.8" font-family="Times,serif" font-size="14.00" fill="#000000">d16v2</text>
</g>
<!-- 11 -->
<g id="node12" class="node">
<title>11</title>
<ellipse fill="#ff0000" stroke="#000000" cx="365" cy="-462" rx="27" ry="27"/>
<text text-anchor="middle" x="365" y="-458.3" font-family="Times,serif" font-size="14.00" fill="#000000">11</text>
</g>
<!-- 9&#45;&gt;11 -->
<g id="edge16" class="edge">
<title>9&#45;&gt;11</title>
<path fill="none" stroke="#000000" d="M408.0733,-617.3536C397.6278,-606.3632 385.6537,-591.5848 379,-576 368.6797,-551.827 365.2755,-522.324 364.4014,-499.3883"/>
<polygon fill="#000000" stroke="#000000" points="367.8996,-499.2688 364.162,-489.3551 360.9016,-499.4358 367.8996,-499.2688"/>
<text text-anchor="middle" x="396.5" y="-545.3" font-family="Times,serif" font-size="14.00" fill="#000000">d17v2</text>
</g>
<!-- 12 -->
<g id="node13" class="node">
<title>12</title>
<ellipse fill="#ff00ae" stroke="#000000" cx="419" cy="-375" rx="27" ry="27"/>
<text text-anchor="middle" x="419" y="-371.3" font-family="Times,serif" font-size="14.00" fill="#000000">12</text>
</g>
<!-- 9&#45;&gt;12 -->
<g id="edge18" class="edge">
<title>9&#45;&gt;12</title>
<path fill="none" stroke="#000000" d="M427.0539,-608.5617C425.4291,-561.4448 422.1075,-465.1167 420.2784,-412.0745"/>
<polygon fill="#000000" stroke="#000000" points="423.7761,-411.944 419.9335,-402.0706 416.7803,-412.1853 423.7761,-411.944"/>
<text text-anchor="middle" x="440.5" y="-501.8" font-family="Times,serif" font-size="14.00" fill="#000000">d17v2</text>
</g>
<!-- 13 -->
<g id="node14" class="node">
<title>13</title>
<ellipse fill="#b30000" stroke="#000000" cx="474" cy="-288" rx="27" ry="27"/>
<text text-anchor="middle" x="474" y="-284.3" font-family="Times,serif" font-size="14.00" fill="#ffffff">13</text>
</g>
<!-- 9&#45;&gt;13 -->
<g id="edge20" class="edge">
<title>9&#45;&gt;13</title>
<path fill="none" stroke="#000000" d="M445.9165,-615.774C458.8326,-599.0738 474,-574.1157 474,-549 474,-549 474,-549 474,-375 474,-358.6781 474,-340.6337 474,-325.2293"/>
<polygon fill="#000000" stroke="#000000" points="477.5001,-325.0401 474,-315.0401 470.5001,-325.0402 477.5001,-325.0401"/>
<text text-anchor="middle" x="491.5" y="-458.3" font-family="Times,serif" font-size="14.00" fill="#000000">d17v2</text>
</g>
<!-- 14 -->
<g id="node15" class="node">
<title>14</title>
<ellipse fill="#ff00ae" stroke="#000000" cx="506" cy="-201" rx="27" ry="27"/>
<text text-anchor="middle" x="506" y="-197.3" font-family="Times,serif" font-size="14.00" fill="#000000">14</text>
</g>
<!-- 9&#45;&gt;14 -->
<g id="edge22" class="edge">
<title>9&#45;&gt;14</title>
<path fill="none" stroke="#000000" d="M453.8315,-628.1081C486.0643,-616.4684 537,-591.3716 537,-549 537,-549 537,-549 537,-288 537,-269.4101 530.6419,-249.8145 523.6846,-233.9368"/>
<polygon fill="#000000" stroke="#000000" points="526.7194,-232.1628 519.3267,-224.5734 520.3731,-235.1165 526.7194,-232.1628"/>
<text text-anchor="middle" x="554.5" y="-414.8" font-family="Times,serif" font-size="14.00" fill="#000000">d17v2</text>
</g>
<!-- 10&#45;&gt;11 -->
<g id="edge15" class="edge">
<title>10&#45;&gt;11</title>
<path fill="none" stroke="#000000" d="M305.8472,-522.1216C307.9218,-513.8759 311.1086,-505.1109 316,-498 320.4009,-491.6022 326.3186,-485.9086 332.5179,-481.0429"/>
<polygon fill="#000000" stroke="#000000" points="334.9476,-483.6072 341.0303,-474.9325 330.8655,-477.9206 334.9476,-483.6072"/>
<text text-anchor="middle" x="333.5" y="-501.8" font-family="Times,serif" font-size="14.00" fill="#000000">d18v2</text>
</g>
<!-- 11&#45;&gt;12 -->
<g id="edge17" class="edge">
<title>11&#45;&gt;12</title>
<path fill="none" stroke="#000000" d="M366.1529,-434.785C367.431,-426.7019 369.7802,-418.1143 374,-411 377.4979,-405.1029 382.3478,-399.7832 387.5753,-395.1544"/>
<polygon fill="#000000" stroke="#000000" points="389.7837,-397.8698 395.3907,-388.8802 385.4016,-392.4111 389.7837,-397.8698"/>
<text text-anchor="middle" x="392" y="-414.8" font-family="Times,serif" font-size="14.00" fill="#000000">d19v2</text>
</g>
<!-- 12&#45;&gt;13 -->
<g id="edge19" class="edge">
<title>12&#45;&gt;13</title>
<path fill="none" stroke="#000000" d="M417.4801,-348.0232C418.0843,-339.8624 419.8727,-331.1709 424,-324 428.1269,-316.8298 434.324,-310.7061 440.9638,-305.6511"/>
<polygon fill="#000000" stroke="#000000" points="443.2098,-308.3553 449.4884,-299.8213 439.2583,-302.5773 443.2098,-308.3553"/>
<text text-anchor="middle" x="442" y="-327.8" font-family="Times,serif" font-size="14.00" fill="#000000">d20v2</text>
</g>
<!-- 13&#45;&gt;14 -->
<g id="edge21" class="edge">
<title>13&#45;&gt;14</title>
<path fill="none" stroke="#000000" d="M480.2261,-261.4754C482.3786,-253.5023 485.0115,-244.8026 488,-237 488.328,-236.1435 488.6698,-235.2803 489.0229,-234.4131"/>
<polygon fill="#000000" stroke="#000000" points="492.2939,-235.6702 493.1399,-225.1092 485.8927,-232.8375 492.2939,-235.6702"/>
<text text-anchor="middle" x="505.5" y="-240.8" font-family="Times,serif" font-size="14.00" fill="#000000">d21v2</text>
</g>
<!-- 15 -->
<g id="node16" class="node">
<title>15</title>
<ellipse fill="#00ff00" stroke="#000000" cx="506" cy="-114" rx="27" ry="27"/>
<text text-anchor="middle" x="506" y="-110.3" font-family="Times,serif" font-size="14.00" fill="#000000">15</text>
</g>
<!-- 14&#45;&gt;15 -->
<g id="edge23" class="edge">
<title>14&#45;&gt;15</title>
<path fill="none" stroke="#000000" d="M506,-173.9496C506,-166.748 506,-158.841 506,-151.1991"/>
<polygon fill="#000000" stroke="#000000" points="509.5001,-151.0337 506,-141.0337 502.5001,-151.0337 509.5001,-151.0337"/>
<text text-anchor="middle" x="523.5" y="-153.8" font-family="Times,serif" font-size="14.00" fill="#000000">d22v2</text>
</g>
<!-- 16 -->
<g id="node17" class="node">
<title>16</title>
<ellipse fill="#ffff00" stroke="#000000" cx="506" cy="-27" rx="27" ry="27"/>
<text text-anchor="middle" x="506" y="-23.3" font-family="Times,serif" font-size="14.00" fill="#000000">16</text>
</g>
<!-- 15&#45;&gt;16 -->
<g id="edge24" class="edge">
<title>15&#45;&gt;16</title>
<path fill="none" stroke="#000000" d="M506,-86.9496C506,-79.748 506,-71.841 506,-64.1991"/>
<polygon fill="#000000" stroke="#000000" points="509.5001,-64.0337 506,-54.0337 502.5001,-64.0337 509.5001,-64.0337"/>
<text text-anchor="middle" x="523.5" y="-66.8" font-family="Times,serif" font-size="14.00" fill="#000000">d23v2</text>
</g>
<!-- 18 -->
<g id="node19" class="node">
<title>18</title>
<ellipse fill="#ffffff" stroke="#000000" cx="592" cy="-549" rx="27" ry="27"/>
<text text-anchor="middle" x="592" y="-545.3" font-family="Times,serif" font-size="14.00" fill="#000000">18</text>
</g>
<!-- 17&#45;&gt;18 -->
<g id="edge26" class="edge">
<title>17&#45;&gt;18</title>
<path fill="none" stroke="#000000" d="M659.354,-630.5572C641.4921,-625.5541 618.7978,-616.3455 605,-600 601.552,-595.9154 599.0011,-591.0344 597.1172,-585.9343"/>
<polygon fill="#000000" stroke="#000000" points="600.3889,-584.6477 594.256,-576.0083 593.6627,-586.5865 600.3889,-584.6477"/>
<text text-anchor="middle" x="623" y="-588.8" font-family="Times,serif" font-size="14.00" fill="#000000">d26v2</text>
</g>
<!-- 19 -->
<g id="node20" class="node">
<title>19</title>
<ellipse fill="#ff0000" stroke="#000000" cx="655" cy="-462" rx="27" ry="27"/>
<text text-anchor="middle" x="655" y="-458.3" font-family="Times,serif" font-size="14.00" fill="#000000">19</text>
</g>
<!-- 17&#45;&gt;19 -->
<g id="edge28" class="edge">
<title>17&#45;&gt;19</title>
<path fill="none" stroke="#000000" d="M677.7561,-610.2239C674.6377,-599.7005 671.2918,-587.3556 669,-576 663.8917,-550.6891 660.3692,-521.8158 658.1352,-499.4602"/>
<polygon fill="#000000" stroke="#000000" points="661.6063,-498.9903 657.1696,-489.3692 654.6381,-499.6571 661.6063,-498.9903"/>
<text text-anchor="middle" x="686.5" y="-545.3" font-family="Times,serif" font-size="14.00" fill="#000000">d27v2</text>
</g>
<!-- 20 -->
<g id="node21" class="node">
<title>20</title>
<ellipse fill="#ff00ae" stroke="#000000" cx="713" cy="-375" rx="27" ry="27"/>
<text text-anchor="middle" x="713" y="-371.3" font-family="Times,serif" font-size="14.00" fill="#000000">20</text>
</g>
<!-- 17&#45;&gt;20 -->
<g id="edge30" class="edge">
<title>17&#45;&gt;20</title>
<path fill="none" stroke="#000000" d="M695.2163,-610.3428C698.5891,-599.8367 702.0531,-587.4726 704,-576 713.5763,-519.5701 714.5808,-453.031 714.0633,-412.4425"/>
<polygon fill="#000000" stroke="#000000" points="717.559,-412.1492 713.8932,-402.2088 710.56,-412.2656 717.559,-412.1492"/>
<text text-anchor="middle" x="729.5" y="-501.8" font-family="Times,serif" font-size="14.00" fill="#000000">d27v2</text>
</g>
<!-- 21 -->
<g id="node22" class="node">
<title>21</title>
<ellipse fill="#b30000" stroke="#000000" cx="768" cy="-288" rx="27" ry="27"/>
<text text-anchor="middle" x="768" y="-284.3" font-family="Times,serif" font-size="14.00" fill="#ffffff">21</text>
</g>
<!-- 17&#45;&gt;21 -->
<g id="edge32" class="edge">
<title>17&#45;&gt;21</title>
<path fill="none" stroke="#000000" d="M710.1592,-623.5563C734.3472,-609.1707 768,-583.0395 768,-549 768,-549 768,-549 768,-375 768,-358.6781 768,-340.6337 768,-325.2293"/>
<polygon fill="#000000" stroke="#000000" points="771.5001,-325.0401 768,-315.0401 764.5001,-325.0402 771.5001,-325.0401"/>
<text text-anchor="middle" x="785.5" y="-458.3" font-family="Times,serif" font-size="14.00" fill="#000000">d27v2</text>
</g>
<!-- 22 -->
<g id="node23" class="node">
<title>22</title>
<ellipse fill="#ff00ae" stroke="#000000" cx="805" cy="-201" rx="27" ry="27"/>
<text text-anchor="middle" x="805" y="-197.3" font-family="Times,serif" font-size="14.00" fill="#000000">22</text>
</g>
<!-- 17&#45;&gt;22 -->
<g id="edge34" class="edge">
<title>17&#45;&gt;22</title>
<path fill="none" stroke="#000000" d="M712.9336,-632.2301C754.8665,-624.6744 831,-603.4576 831,-549 831,-549 831,-549 831,-288 831,-269.9844 825.8186,-250.716 820.082,-234.9034"/>
<polygon fill="#000000" stroke="#000000" points="823.3389,-233.6213 816.4797,-225.5465 816.8063,-236.1363 823.3389,-233.6213"/>
<text text-anchor="middle" x="848.5" y="-414.8" font-family="Times,serif" font-size="14.00" fill="#000000">d27v2</text>
</g>
<!-- 18&#45;&gt;19 -->
<g id="edge27" class="edge">
<title>18&#45;&gt;19</title>
<path fill="none" stroke="#000000" d="M595.8472,-522.1216C597.9218,-513.8759 601.1086,-505.1109 606,-498 610.4009,-491.6022 616.3186,-485.9086 622.5179,-481.0429"/>
<polygon fill="#000000" stroke="#000000" points="624.9476,-483.6072 631.0303,-474.9325 620.8655,-477.9206 624.9476,-483.6072"/>
<text text-anchor="middle" x="623.5" y="-501.8" font-family="Times,serif" font-size="14.00" fill="#000000">d28v2</text>
</g>
<!-- 19&#45;&gt;20 -->
<g id="edge29" class="edge">
<title>19&#45;&gt;20</title>
<path fill="none" stroke="#000000" d="M658.4979,-434.9871C660.4192,-426.8246 663.3942,-418.1412 668,-411 671.7162,-405.238 676.6677,-399.9811 681.9266,-395.3718"/>
<polygon fill="#000000" stroke="#000000" points="684.1351,-398.0872 689.7436,-389.0986 679.7538,-392.6278 684.1351,-398.0872"/>
<text text-anchor="middle" x="686" y="-414.8" font-family="Times,serif" font-size="14.00" fill="#000000">d29v2</text>
</g>
<!-- 20&#45;&gt;21 -->
<g id="edge31" class="edge">
<title>20&#45;&gt;21</title>
<path fill="none" stroke="#000000" d="M711.4801,-348.0232C712.0843,-339.8624 713.8727,-331.1709 718,-324 722.1269,-316.8298 728.324,-310.7061 734.9638,-305.6511"/>
<polygon fill="#000000" stroke="#000000" points="737.2098,-308.3553 743.4884,-299.8213 733.2583,-302.5773 737.2098,-308.3553"/>
<text text-anchor="middle" x="736" y="-327.8" font-family="Times,serif" font-size="14.00" fill="#000000">d30v2</text>
</g>
<!-- 21&#45;&gt;22 -->
<g id="edge33" class="edge">
<title>21&#45;&gt;22</title>
<path fill="none" stroke="#000000" d="M773.6514,-261.5297C775.7963,-253.4768 778.5693,-244.7192 782,-237 782.7041,-235.4158 783.4714,-233.8207 784.2844,-232.23"/>
<polygon fill="#000000" stroke="#000000" points="787.4704,-233.7049 789.3202,-223.2728 781.3686,-230.2744 787.4704,-233.7049"/>
<text text-anchor="middle" x="799.5" y="-240.8" font-family="Times,serif" font-size="14.00" fill="#000000">d31v2</text>
</g>
<!-- 23 -->
<g id="node24" class="node">
<title>23</title>
<ellipse fill="#00ff00" stroke="#000000" cx="805" cy="-114" rx="27" ry="27"/>
<text text-anchor="middle" x="805" y="-110.3" font-family="Times,serif" font-size="14.00" fill="#000000">23</text>
</g>
<!-- 22&#45;&gt;23 -->
<g id="edge35" class="edge">
<title>22&#45;&gt;23</title>
<path fill="none" stroke="#000000" d="M805,-173.9496C805,-166.748 805,-158.841 805,-151.1991"/>
<polygon fill="#000000" stroke="#000000" points="808.5001,-151.0337 805,-141.0337 801.5001,-151.0337 808.5001,-151.0337"/>
<text text-anchor="middle" x="822.5" y="-153.8" font-family="Times,serif" font-size="14.00" fill="#000000">d32v2</text>
</g>
<!-- 24 -->
<g id="node25" class="node">
<title>24</title>
<ellipse fill="#ffff00" stroke="#000000" cx="805" cy="-27" rx="27" ry="27"/>
<text text-anchor="middle" x="805" y="-23.3" font-family="Times,serif" font-size="14.00" fill="#000000">24</text>
</g>
<!-- 23&#45;&gt;24 -->
<g id="edge36" class="edge">
<title>23&#45;&gt;24</title>
<path fill="none" stroke="#000000" d="M805,-86.9496C805,-79.748 805,-71.841 805,-64.1991"/>
<polygon fill="#000000" stroke="#000000" points="808.5001,-64.0337 805,-54.0337 801.5001,-64.0337 808.5001,-64.0337"/>
<text text-anchor="middle" x="822.5" y="-66.8" font-family="Times,serif" font-size="14.00" fill="#000000">d33v2</text>
</g>
<!-- key -->
<g id="node26" class="node">
<title>key</title>
<polygon fill="none" stroke="#000000" points="481,-811.5 481,-832.5 751,-832.5 751,-811.5 481,-811.5"/>
<text text-anchor="start" x="526" y="-818.3" font-family="Times,serif" font-size="14.00" fill="#000000">lysozyme_in_water.generate_topology</text>
<polygon fill="#0000ff" stroke="transparent" points="751,-811.5 751,-832.5 761,-832.5 761,-811.5 751,-811.5"/>
<polygon fill="none" stroke="#000000" points="751,-811.5 751,-832.5 761,-832.5 761,-811.5 751,-811.5"/>
<text text-anchor="start" x="754" y="-818.3" font-family="Times,serif" font-size="14.00" fill="#000000"> </text>
<polygon fill="none" stroke="#000000" points="481,-790.5 481,-811.5 751,-811.5 751,-790.5 481,-790.5"/>
<text text-anchor="start" x="570" y="-797.3" font-family="Times,serif" font-size="14.00" fill="#000000">lysozyme_in_water.define_box</text>
<polygon fill="#ffffff" stroke="transparent" points="751,-790.5 751,-811.5 761,-811.5 761,-790.5 751,-790.5"/>
<polygon fill="none" stroke="#000000" points="751,-790.5 751,-811.5 761,-811.5 761,-790.5 751,-790.5"/>
<text text-anchor="start" x="754" y="-797.3" font-family="Times,serif" font-size="14.00" fill="#000000"> </text>
<polygon fill="none" stroke="#000000" points="481,-769.5 481,-790.5 751,-790.5 751,-769.5 481,-769.5"/>
<text text-anchor="start" x="566" y="-776.3" font-family="Times,serif" font-size="14.00" fill="#000000">lysozyme_in_water.add_solvate</text>
<polygon fill="#ff0000" stroke="transparent" points="751,-769.5 751,-790.5 761,-790.5 761,-769.5 751,-769.5"/>
<polygon fill="none" stroke="#000000" points="751,-769.5 751,-790.5 761,-790.5 761,-769.5 751,-769.5"/>
<text text-anchor="start" x="754" y="-776.3" font-family="Times,serif" font-size="14.00" fill="#000000"> </text>
<polygon fill="none" stroke="#000000" points="481,-748.5 481,-769.5 751,-769.5 751,-748.5 481,-748.5"/>
<text text-anchor="start" x="560" y="-755.3" font-family="Times,serif" font-size="14.00" fill="#000000">lysozyme_in_water.assemble_tpr</text>
<polygon fill="#ff00ae" stroke="transparent" points="751,-748.5 751,-769.5 761,-769.5 761,-748.5 751,-748.5"/>
<polygon fill="none" stroke="#000000" points="751,-748.5 751,-769.5 761,-769.5 761,-748.5 751,-748.5"/>
<text text-anchor="start" x="754" y="-755.3" font-family="Times,serif" font-size="14.00" fill="#000000"> </text>
<polygon fill="none" stroke="#000000" points="481,-727.5 481,-748.5 751,-748.5 751,-727.5 481,-727.5"/>
<text text-anchor="start" x="484" y="-734.3" font-family="Times,serif" font-size="14.00" fill="#000000">lysozyme_in_water.replace_solvent_with_ions</text>
<polygon fill="#b30000" stroke="transparent" points="751,-727.5 751,-748.5 761,-748.5 761,-727.5 751,-727.5"/>
<polygon fill="none" stroke="#000000" points="751,-727.5 751,-748.5 761,-748.5 761,-727.5 751,-727.5"/>
<text text-anchor="start" x="754" y="-734.3" font-family="Times,serif" font-size="14.00" fill="#000000"> </text>
<polygon fill="none" stroke="#000000" points="481,-706.5 481,-727.5 751,-727.5 751,-706.5 481,-706.5"/>
<text text-anchor="start" x="512" y="-713.3" font-family="Times,serif" font-size="14.00" fill="#000000">lysozyme_in_water.energy_minimization</text>
<polygon fill="#00ff00" stroke="transparent" points="751,-706.5 751,-727.5 761,-727.5 761,-706.5 751,-706.5"/>
<polygon fill="none" stroke="#000000" points="751,-706.5 751,-727.5 761,-727.5 761,-706.5 751,-706.5"/>
<text text-anchor="start" x="754" y="-713.3" font-family="Times,serif" font-size="14.00" fill="#000000"> </text>
<polygon fill="none" stroke="#000000" points="481,-685.5 481,-706.5 751,-706.5 751,-685.5 481,-685.5"/>
<text text-anchor="start" x="546" y="-692.3" font-family="Times,serif" font-size="14.00" fill="#000000">lysozyme_in_water.energy_analisis</text>
<polygon fill="#ffff00" stroke="transparent" points="751,-685.5 751,-706.5 761,-706.5 761,-685.5 751,-685.5"/>
<polygon fill="none" stroke="#000000" points="751,-685.5 751,-706.5 761,-706.5 761,-685.5 751,-685.5"/>
<text text-anchor="start" x="754" y="-692.3" font-family="Times,serif" font-size="14.00" fill="#000000"> </text>
</g>
</g>
</svg>
