<?xml version="1.0" encoding="UTF-8" standalone="no"?>
<!DOCTYPE svg PUBLIC "-//W3C//DTD SVG 1.1//EN"
 "http://www.w3.org/Graphics/SVG/1.1/DTD/svg11.dtd">
<!-- Generated by graphviz version 2.43.0 (0)
 -->
<!-- Title: %3 Pages: 1 -->
<svg width="454pt" height="500pt"
 viewBox="0.00 0.00 453.50 500.00" xmlns="http://www.w3.org/2000/svg" xmlns:xlink="http://www.w3.org/1999/xlink">
<g id="graph0" class="graph" transform="scale(1 1) rotate(0) translate(4 496)">
<title>%3</title>
<polygon fill="white" stroke="transparent" points="-4,4 -4,-496 449.5,-496 449.5,4 -4,4"/>
<!-- Synchro0 -->
<g id="node1" class="node">
<title>Synchro0</title>
<polygon fill="#8b0000" stroke="black" points="198,-445.32 198,-467.68 182.18,-483.5 159.82,-483.5 144,-467.68 144,-445.32 159.82,-429.5 182.18,-429.5 198,-445.32"/>
<text text-anchor="middle" x="171" y="-452.8" font-family="Times,serif" font-size="14.00" fill="#ffffff">main</text>
</g>
<!-- 1 -->
<g id="node2" class="node">
<title>1</title>
<ellipse fill="#0000ff" stroke="black" cx="27" cy="-375" rx="27" ry="27"/>
<text text-anchor="middle" x="27" y="-371.3" font-family="Times,serif" font-size="14.00" fill="#ffffff">1</text>
</g>
<!-- Synchro0&#45;&gt;1 -->
<g id="edge1" class="edge">
<title>Synchro0&#45;&gt;1</title>
<path fill="none" stroke="black" d="M145.05,-444.12C122.77,-434 90.06,-418.32 63,-402 61.02,-400.8 59,-399.53 56.99,-398.21"/>
<polygon fill="black" stroke="black" points="58.54,-395.03 48.31,-392.27 54.58,-400.81 58.54,-395.03"/>
</g>
<!-- 3 -->
<g id="node4" class="node">
<title>3</title>
<ellipse fill="#0000ff" stroke="black" cx="99" cy="-375" rx="27" ry="27"/>
<text text-anchor="middle" x="99" y="-371.3" font-family="Times,serif" font-size="14.00" fill="#ffffff">3</text>
</g>
<!-- Synchro0&#45;&gt;3 -->
<g id="edge3" class="edge">
<title>Synchro0&#45;&gt;3</title>
<path fill="none" stroke="black" d="M153.2,-435.85C144.29,-426.01 133.35,-413.93 123.65,-403.22"/>
<polygon fill="black" stroke="black" points="126.15,-400.76 116.84,-395.7 120.96,-405.46 126.15,-400.76"/>
</g>
<!-- 5 -->
<g id="node6" class="node">
<title>5</title>
<ellipse fill="#0000ff" stroke="black" cx="171" cy="-375" rx="27" ry="27"/>
<text text-anchor="middle" x="171" y="-371.3" font-family="Times,serif" font-size="14.00" fill="#ffffff">5</text>
</g>
<!-- Synchro0&#45;&gt;5 -->
<g id="edge5" class="edge">
<title>Synchro0&#45;&gt;5</title>
<path fill="none" stroke="black" d="M171,-429.47C171,-423.98 171,-418.09 171,-412.3"/>
<polygon fill="black" stroke="black" points="174.5,-412.09 171,-402.09 167.5,-412.09 174.5,-412.09"/>
</g>
<!-- 7 -->
<g id="node8" class="node">
<title>7</title>
<ellipse fill="#0000ff" stroke="black" cx="243" cy="-375" rx="27" ry="27"/>
<text text-anchor="middle" x="243" y="-371.3" font-family="Times,serif" font-size="14.00" fill="#ffffff">7</text>
</g>
<!-- Synchro0&#45;&gt;7 -->
<g id="edge7" class="edge">
<title>Synchro0&#45;&gt;7</title>
<path fill="none" stroke="black" d="M188.8,-435.85C197.71,-426.01 208.65,-413.93 218.35,-403.22"/>
<polygon fill="black" stroke="black" points="221.04,-405.46 225.16,-395.7 215.85,-400.76 221.04,-405.46"/>
</g>
<!-- Synchro1 -->
<g id="node13" class="node">
<title>Synchro1</title>
<polygon fill="#ff0000" stroke="black" points="261,-15.82 261,-38.18 245.18,-54 222.82,-54 207,-38.18 207,-15.82 222.82,0 245.18,0 261,-15.82"/>
<text text-anchor="middle" x="234" y="-23.3" font-family="Times,serif" font-size="14.00" fill="#ffffff">sync</text>
</g>
<!-- Synchro0&#45;&gt;Synchro1 -->
<g id="edge15" class="edge">
<title>Synchro0&#45;&gt;Synchro1</title>
<path fill="none" stroke="black" d="M188.77,-435.63C194.46,-430.23 201.09,-424.83 208,-421 247.12,-399.33 298,-420.72 298,-376 298,-376 298,-376 298,-113 298,-88.01 280.13,-65.7 263.27,-50.21"/>
<polygon fill="black" stroke="black" points="265.51,-47.51 255.67,-43.59 260.91,-52.79 265.51,-47.51"/>
</g>
<!-- 2 -->
<g id="node3" class="node">
<title>2</title>
<ellipse fill="#ffffff" stroke="black" cx="27" cy="-288" rx="27" ry="27"/>
<text text-anchor="middle" x="27" y="-284.3" font-family="Times,serif" font-size="14.00" fill="#000000">2</text>
</g>
<!-- 1&#45;&gt;2 -->
<g id="edge2" class="edge">
<title>1&#45;&gt;2</title>
<path fill="none" stroke="black" d="M27,-347.57C27,-340.47 27,-332.66 27,-325.13"/>
<polygon fill="black" stroke="black" points="30.5,-325.12 27,-315.12 23.5,-325.12 30.5,-325.12"/>
<text text-anchor="middle" x="41" y="-327.8" font-family="Times,serif" font-size="14.00">d2v2</text>
</g>
<!-- 9 -->
<g id="node10" class="node">
<title>9</title>
<ellipse fill="#ff0000" stroke="black" cx="99" cy="-201" rx="27" ry="27"/>
<text text-anchor="middle" x="99" y="-197.3" font-family="Times,serif" font-size="14.00" fill="#000000">9</text>
</g>
<!-- 2&#45;&gt;9 -->
<g id="edge9" class="edge">
<title>2&#45;&gt;9</title>
<path fill="none" stroke="black" d="M43.43,-265.83C50.55,-256.83 59.05,-246.29 67,-237 69.19,-234.43 71.51,-231.79 73.84,-229.17"/>
<polygon fill="black" stroke="black" points="76.73,-231.19 80.83,-221.42 71.53,-226.5 76.73,-231.19"/>
<text text-anchor="middle" x="81" y="-240.8" font-family="Times,serif" font-size="14.00">d3v2</text>
</g>
<!-- 4 -->
<g id="node5" class="node">
<title>4</title>
<ellipse fill="#ffffff" stroke="black" cx="99" cy="-288" rx="27" ry="27"/>
<text text-anchor="middle" x="99" y="-284.3" font-family="Times,serif" font-size="14.00" fill="#000000">4</text>
</g>
<!-- 3&#45;&gt;4 -->
<g id="edge4" class="edge">
<title>3&#45;&gt;4</title>
<path fill="none" stroke="black" d="M99,-347.57C99,-340.47 99,-332.66 99,-325.13"/>
<polygon fill="black" stroke="black" points="102.5,-325.12 99,-315.12 95.5,-325.12 102.5,-325.12"/>
<text text-anchor="middle" x="113" y="-327.8" font-family="Times,serif" font-size="14.00">d5v2</text>
</g>
<!-- 4&#45;&gt;9 -->
<g id="edge10" class="edge">
<title>4&#45;&gt;9</title>
<path fill="none" stroke="black" d="M99,-260.57C99,-253.47 99,-245.66 99,-238.13"/>
<polygon fill="black" stroke="black" points="102.5,-238.12 99,-228.12 95.5,-238.12 102.5,-238.12"/>
<text text-anchor="middle" x="113" y="-240.8" font-family="Times,serif" font-size="14.00">d6v2</text>
</g>
<!-- 6 -->
<g id="node7" class="node">
<title>6</title>
<ellipse fill="#ffffff" stroke="black" cx="171" cy="-288" rx="27" ry="27"/>
<text text-anchor="middle" x="171" y="-284.3" font-family="Times,serif" font-size="14.00" fill="#000000">6</text>
</g>
<!-- 5&#45;&gt;6 -->
<g id="edge6" class="edge">
<title>5&#45;&gt;6</title>
<path fill="none" stroke="black" d="M171,-347.57C171,-340.47 171,-332.66 171,-325.13"/>
<polygon fill="black" stroke="black" points="174.5,-325.12 171,-315.12 167.5,-325.12 174.5,-325.12"/>
<text text-anchor="middle" x="185" y="-327.8" font-family="Times,serif" font-size="14.00">d8v2</text>
</g>
<!-- 10 -->
<g id="node11" class="node">
<title>10</title>
<ellipse fill="#ff0000" stroke="black" cx="190" cy="-201" rx="27" ry="27"/>
<text text-anchor="middle" x="190" y="-197.3" font-family="Times,serif" font-size="14.00" fill="#000000">10</text>
</g>
<!-- 6&#45;&gt;10 -->
<g id="edge11" class="edge">
<title>6&#45;&gt;10</title>
<path fill="none" stroke="black" d="M176.7,-261.5C178.39,-253.93 180.27,-245.51 182.08,-237.43"/>
<polygon fill="black" stroke="black" points="185.54,-238.01 184.3,-227.48 178.71,-236.48 185.54,-238.01"/>
<text text-anchor="middle" x="195" y="-240.8" font-family="Times,serif" font-size="14.00">d9v2</text>
</g>
<!-- 8 -->
<g id="node9" class="node">
<title>8</title>
<ellipse fill="#ffffff" stroke="black" cx="243" cy="-288" rx="27" ry="27"/>
<text text-anchor="middle" x="243" y="-284.3" font-family="Times,serif" font-size="14.00" fill="#000000">8</text>
</g>
<!-- 7&#45;&gt;8 -->
<g id="edge8" class="edge">
<title>7&#45;&gt;8</title>
<path fill="none" stroke="black" d="M243,-347.57C243,-340.47 243,-332.66 243,-325.13"/>
<polygon fill="black" stroke="black" points="246.5,-325.12 243,-315.12 239.5,-325.12 246.5,-325.12"/>
<text text-anchor="middle" x="260" y="-327.8" font-family="Times,serif" font-size="14.00">d11v2</text>
</g>
<!-- 8&#45;&gt;10 -->
<g id="edge12" class="edge">
<title>8&#45;&gt;10</title>
<path fill="none" stroke="black" d="M229.07,-264.67C223.04,-254.98 215.86,-243.48 209.32,-232.99"/>
<polygon fill="black" stroke="black" points="212.28,-231.11 204.02,-224.48 206.34,-234.82 212.28,-231.11"/>
<text text-anchor="middle" x="236" y="-240.8" font-family="Times,serif" font-size="14.00">d12v2</text>
</g>
<!-- 11 -->
<g id="node12" class="node">
<title>11</title>
<ellipse fill="#ff0000" stroke="black" cx="190" cy="-114" rx="27" ry="27"/>
<text text-anchor="middle" x="190" y="-110.3" font-family="Times,serif" font-size="14.00" fill="#000000">11</text>
</g>
<!-- 9&#45;&gt;11 -->
<g id="edge13" class="edge">
<title>9&#45;&gt;11</title>
<path fill="none" stroke="black" d="M118.08,-181.89C128.15,-172.37 140.71,-160.52 152,-150 155.51,-146.73 159.2,-143.3 162.86,-139.92"/>
<polygon fill="black" stroke="black" points="165.26,-142.47 170.24,-133.12 160.51,-137.33 165.26,-142.47"/>
<text text-anchor="middle" x="169" y="-153.8" font-family="Times,serif" font-size="14.00">d13v2</text>
</g>
<!-- 10&#45;&gt;11 -->
<g id="edge14" class="edge">
<title>10&#45;&gt;11</title>
<path fill="none" stroke="black" d="M190,-173.57C190,-166.47 190,-158.66 190,-151.13"/>
<polygon fill="black" stroke="black" points="193.5,-151.12 190,-141.12 186.5,-151.12 193.5,-151.12"/>
<text text-anchor="middle" x="207" y="-153.8" font-family="Times,serif" font-size="14.00">d14v2</text>
</g>
<!-- 11&#45;&gt;Synchro1 -->
<g id="edge16" class="edge">
<title>11&#45;&gt;Synchro1</title>
<path fill="none" stroke="black" d="M202.02,-89.77C206.49,-81.15 211.65,-71.18 216.51,-61.8"/>
<polygon fill="black" stroke="black" points="219.73,-63.18 221.22,-52.69 213.52,-59.96 219.73,-63.18"/>
<text text-anchor="middle" x="231" y="-66.8" font-family="Times,serif" font-size="14.00">d15v2</text>
</g>
<!-- key -->
<g id="node14" class="node">
<title>key</title>
<polygon fill="none" stroke="black" points="225,-466.5 225,-487.5 428,-487.5 428,-466.5 225,-466.5"/>
<text text-anchor="start" x="274" y="-473.3" font-family="Times,serif" font-size="14.00">wordcount_merge.read_file</text>
<polygon fill="#0000ff" stroke="transparent" points="428,-466.5 428,-487.5 438,-487.5 438,-466.5 428,-466.5"/>
<polygon fill="none" stroke="black" points="428,-466.5 428,-487.5 438,-487.5 438,-466.5 428,-466.5"/>
<text text-anchor="start" x="431" y="-473.3" font-family="Times,serif" font-size="14.00"> </text>
<polygon fill="none" stroke="black" points="225,-445.5 225,-466.5 428,-466.5 428,-445.5 225,-445.5"/>
<text text-anchor="start" x="261" y="-452.3" font-family="Times,serif" font-size="14.00">wordcount_merge.wordCount</text>
<polygon fill="#ffffff" stroke="transparent" points="428,-445.5 428,-466.5 438,-466.5 438,-445.5 428,-445.5"/>
<polygon fill="none" stroke="black" points="428,-445.5 428,-466.5 438,-466.5 438,-445.5 428,-445.5"/>
<text text-anchor="start" x="431" y="-452.3" font-family="Times,serif" font-size="14.00"> </text>
<polygon fill="none" stroke="black" points="225,-424.5 225,-445.5 428,-445.5 428,-424.5 225,-424.5"/>
<text text-anchor="start" x="228" y="-431.3" font-family="Times,serif" font-size="14.00">wordcount_merge.merge_two_dicts</text>
<polygon fill="#ff0000" stroke="transparent" points="428,-424.5 428,-445.5 438,-445.5 438,-424.5 428,-424.5"/>
<polygon fill="none" stroke="black" points="428,-424.5 428,-445.5 438,-445.5 438,-424.5 428,-424.5"/>
<text text-anchor="start" x="431" y="-431.3" font-family="Times,serif" font-size="14.00"> </text>
</g>
</g>
</svg>
