<?xml version="1.0" encoding="UTF-8" standalone="no"?>
<!DOCTYPE svg PUBLIC "-//W3C//DTD SVG 1.1//EN"
 "http://www.w3.org/Graphics/SVG/1.1/DTD/svg11.dtd">
<!-- Generated by graphviz version 8.0.5 (20230430.1635)
 -->
<!-- Pages: 1 -->
<svg width="238pt" height="755pt"
 viewBox="0.00 0.00 238.25 754.50" xmlns="http://www.w3.org/2000/svg" xmlns:xlink="http://www.w3.org/1999/xlink">
<g id="graph0" class="graph" transform="scale(1 1) rotate(0) translate(4 750.5)">
<polygon fill="white" stroke="none" points="-4,4 -4,-750.5 234.25,-750.5 234.25,4 -4,4"/>
<!-- Synchro0 -->
<g id="node1" class="node">
<title>Synchro0</title>
<polygon fill="#8b0000" stroke="black" points="54,-708.32 54,-730.68 38.18,-746.5 15.82,-746.5 0,-730.68 0,-708.32 15.82,-692.5 38.18,-692.5 54,-708.32"/>
<text text-anchor="middle" x="27" y="-714.45" font-family="Times,serif" font-size="14.00" fill="#ffffff">main</text>
</g>
<!-- 1 -->
<g id="node2" class="node">
<title>1</title>
<ellipse fill="#0000ff" stroke="black" cx="27" cy="-646.5" rx="27" ry="27"/>
<text text-anchor="middle" x="27" y="-641.45" font-family="Times,serif" font-size="14.00" fill="#ffffff">1</text>
</g>
<!-- Synchro0&#45;&gt;1 -->
<g id="edge1" class="edge">
<title>Synchro0&#45;&gt;1</title>
<path fill="none" stroke="black" d="M27,-692.06C27,-689.63 27,-687.13 27,-684.63"/>
<polygon fill="black" stroke="black" points="30.5,-684.72 27,-674.72 23.5,-684.72 30.5,-684.72"/>
</g>
<!-- 2 -->
<g id="node3" class="node">
<title>2</title>
<ellipse fill="#0000ff" stroke="black" cx="27" cy="-558" rx="27" ry="27"/>
<text text-anchor="middle" x="27" y="-552.95" font-family="Times,serif" font-size="14.00" fill="#ffffff">2</text>
</g>
<!-- 1&#45;&gt;2 -->
<g id="edge2" class="edge">
<title>1&#45;&gt;2</title>
<path fill="none" stroke="black" d="M27,-619.08C27,-611.87 27,-603.92 27,-596.23"/>
<polygon fill="black" stroke="black" points="30.5,-596.26 27,-586.26 23.5,-596.26 30.5,-596.26"/>
<text text-anchor="middle" x="40.5" y="-597.2" font-family="Times,serif" font-size="14.00">d3v2</text>
</g>
<!-- 3 -->
<g id="node4" class="node">
<title>3</title>
<ellipse fill="#0000ff" stroke="black" cx="27" cy="-469.5" rx="27" ry="27"/>
<text text-anchor="middle" x="27" y="-464.45" font-family="Times,serif" font-size="14.00" fill="#ffffff">3</text>
</g>
<!-- 2&#45;&gt;3 -->
<g id="edge3" class="edge">
<title>2&#45;&gt;3</title>
<path fill="none" stroke="black" d="M27,-530.58C27,-523.37 27,-515.42 27,-507.73"/>
<polygon fill="black" stroke="black" points="30.5,-507.76 27,-497.76 23.5,-507.76 30.5,-507.76"/>
<text text-anchor="middle" x="40.5" y="-508.7" font-family="Times,serif" font-size="14.00">d3v3</text>
</g>
<!-- 4 -->
<g id="node5" class="node">
<title>4</title>
<ellipse fill="#0000ff" stroke="black" cx="27" cy="-381" rx="27" ry="27"/>
<text text-anchor="middle" x="27" y="-375.95" font-family="Times,serif" font-size="14.00" fill="#ffffff">4</text>
</g>
<!-- 3&#45;&gt;4 -->
<g id="edge4" class="edge">
<title>3&#45;&gt;4</title>
<path fill="none" stroke="black" d="M27,-442.08C27,-434.87 27,-426.92 27,-419.23"/>
<polygon fill="black" stroke="black" points="30.5,-419.26 27,-409.26 23.5,-419.26 30.5,-419.26"/>
<text text-anchor="middle" x="40.5" y="-420.2" font-family="Times,serif" font-size="14.00">d3v4</text>
</g>
<!-- 5 -->
<g id="node6" class="node">
<title>5</title>
<ellipse fill="#0000ff" stroke="black" cx="27" cy="-292.5" rx="27" ry="27"/>
<text text-anchor="middle" x="27" y="-287.45" font-family="Times,serif" font-size="14.00" fill="#ffffff">5</text>
</g>
<!-- 4&#45;&gt;5 -->
<g id="edge5" class="edge">
<title>4&#45;&gt;5</title>
<path fill="none" stroke="black" d="M27,-353.58C27,-346.37 27,-338.42 27,-330.73"/>
<polygon fill="black" stroke="black" points="30.5,-330.76 27,-320.76 23.5,-330.76 30.5,-330.76"/>
<text text-anchor="middle" x="40.5" y="-331.7" font-family="Times,serif" font-size="14.00">d3v5</text>
</g>
<!-- 6 -->
<g id="node7" class="node">
<title>6</title>
<ellipse fill="#0000ff" stroke="black" cx="27" cy="-204" rx="27" ry="27"/>
<text text-anchor="middle" x="27" y="-198.95" font-family="Times,serif" font-size="14.00" fill="#ffffff">6</text>
</g>
<!-- 5&#45;&gt;6 -->
<g id="edge6" class="edge">
<title>5&#45;&gt;6</title>
<path fill="none" stroke="black" d="M27,-265.08C27,-257.87 27,-249.92 27,-242.23"/>
<polygon fill="black" stroke="black" points="30.5,-242.26 27,-232.26 23.5,-242.26 30.5,-242.26"/>
<text text-anchor="middle" x="40.5" y="-243.2" font-family="Times,serif" font-size="14.00">d3v6</text>
</g>
<!-- 7 -->
<g id="node8" class="node">
<title>7</title>
<ellipse fill="#0000ff" stroke="black" cx="27" cy="-115.5" rx="27" ry="27"/>
<text text-anchor="middle" x="27" y="-110.45" font-family="Times,serif" font-size="14.00" fill="#ffffff">7</text>
</g>
<!-- 6&#45;&gt;7 -->
<g id="edge7" class="edge">
<title>6&#45;&gt;7</title>
<path fill="none" stroke="black" d="M27,-176.58C27,-169.37 27,-161.42 27,-153.73"/>
<polygon fill="black" stroke="black" points="30.5,-153.76 27,-143.76 23.5,-153.76 30.5,-153.76"/>
<text text-anchor="middle" x="40.5" y="-154.7" font-family="Times,serif" font-size="14.00">d3v7</text>
</g>
<!-- 8 -->
<g id="node9" class="node">
<title>8</title>
<ellipse fill="#0000ff" stroke="black" cx="27" cy="-27" rx="27" ry="27"/>
<text text-anchor="middle" x="27" y="-21.95" font-family="Times,serif" font-size="14.00" fill="#ffffff">8</text>
</g>
<!-- 7&#45;&gt;8 -->
<g id="edge8" class="edge">
<title>7&#45;&gt;8</title>
<path fill="none" stroke="black" d="M27,-88.08C27,-80.87 27,-72.92 27,-65.23"/>
<polygon fill="black" stroke="black" points="30.5,-65.26 27,-55.26 23.5,-65.26 30.5,-65.26"/>
<text text-anchor="middle" x="40.5" y="-66.2" font-family="Times,serif" font-size="14.00">d3v8</text>
</g>
<!-- key -->
<g id="node10" class="node">
<title>key</title>
<polygon fill="none" stroke="black" points="79.75,-708.25 79.75,-730.75 212.5,-730.75 212.5,-708.25 79.75,-708.25"/>
<text text-anchor="start" x="82.75" y="-714.45" font-family="Times,serif" font-size="14.00">matmul_tasks.multiply</text>
<polygon fill="#0000ff" stroke="none" points="212.5,-708.25 212.5,-730.75 222.25,-730.75 222.25,-708.25 212.5,-708.25"/>
<polygon fill="none" stroke="black" points="212.5,-708.25 212.5,-730.75 222.25,-730.75 222.25,-708.25 212.5,-708.25"/>
<text text-anchor="start" x="215.5" y="-714.45" font-family="Times,serif" font-size="14.00"> </text>
</g>
</g>
</svg>
