<?xml version="1.0" encoding="UTF-8" standalone="no"?>
<!DOCTYPE svg PUBLIC "-//W3C//DTD SVG 1.1//EN"
 "http://www.w3.org/Graphics/SVG/1.1/DTD/svg11.dtd">
<!-- Generated by graphviz version 8.0.5 (20230430.1635)
 -->
<!-- Pages: 1 -->
<svg width="334pt" height="224pt"
 viewBox="0.00 0.00 334.25 223.50" xmlns="http://www.w3.org/2000/svg" xmlns:xlink="http://www.w3.org/1999/xlink">
<g id="graph0" class="graph" transform="scale(1 1) rotate(0) translate(4 219.5)">
<polygon fill="white" stroke="none" points="-4,4 -4,-219.5 330.25,-219.5 330.25,4 -4,4"/>
<!-- Synchro0 -->
<g id="node1" class="node">
<title>Synchro0</title>
<polygon fill="#8b0000" stroke="black" points="150,-177.32 150,-199.68 134.18,-215.5 111.82,-215.5 96,-199.68 96,-177.32 111.82,-161.5 134.18,-161.5 150,-177.32"/>
<text text-anchor="middle" x="123" y="-183.45" font-family="Times,serif" font-size="14.00" fill="#ffffff">main</text>
</g>
<!-- 1 -->
<g id="node2" class="node">
<title>1</title>
<ellipse fill="#0000ff" stroke="black" cx="27" cy="-115.5" rx="27" ry="27"/>
<text text-anchor="middle" x="27" y="-110.45" font-family="Times,serif" font-size="14.00" fill="#ffffff">1</text>
</g>
<!-- Synchro0&#45;&gt;1 -->
<g id="edge1" class="edge">
<title>Synchro0&#45;&gt;1</title>
<path fill="none" stroke="black" d="M101.69,-171.74C88.61,-162.07 71.65,-149.52 57.2,-138.83"/>
<polygon fill="black" stroke="black" points="59.7,-135.59 49.58,-132.46 55.54,-141.22 59.7,-135.59"/>
</g>
<!-- 3 -->
<g id="node4" class="node">
<title>3</title>
<ellipse fill="#0000ff" stroke="black" cx="99" cy="-115.5" rx="27" ry="27"/>
<text text-anchor="middle" x="99" y="-110.45" font-family="Times,serif" font-size="14.00" fill="#ffffff">3</text>
</g>
<!-- Synchro0&#45;&gt;3 -->
<g id="edge3" class="edge">
<title>Synchro0&#45;&gt;3</title>
<path fill="none" stroke="black" d="M114.06,-161.06C113,-157.93 111.91,-154.7 110.82,-151.47"/>
<polygon fill="black" stroke="black" points="113.91,-150.67 107.39,-142.31 107.27,-152.91 113.91,-150.67"/>
</g>
<!-- 5 -->
<g id="node6" class="node">
<title>5</title>
<ellipse fill="#0000ff" stroke="black" cx="171" cy="-115.5" rx="27" ry="27"/>
<text text-anchor="middle" x="171" y="-110.45" font-family="Times,serif" font-size="14.00" fill="#ffffff">5</text>
</g>
<!-- Synchro0&#45;&gt;5 -->
<g id="edge5" class="edge">
<title>Synchro0&#45;&gt;5</title>
<path fill="none" stroke="black" d="M138.19,-165.04C141.94,-159.49 146.02,-153.45 149.99,-147.58"/>
<polygon fill="black" stroke="black" points="153.37,-149.82 156.08,-139.58 147.58,-145.9 153.37,-149.82"/>
</g>
<!-- 7 -->
<g id="node8" class="node">
<title>7</title>
<ellipse fill="#0000ff" stroke="black" cx="243" cy="-115.5" rx="27" ry="27"/>
<text text-anchor="middle" x="243" y="-110.45" font-family="Times,serif" font-size="14.00" fill="#ffffff">7</text>
</g>
<!-- Synchro0&#45;&gt;7 -->
<g id="edge7" class="edge">
<title>Synchro0&#45;&gt;7</title>
<path fill="none" stroke="black" d="M144.13,-170.92C148.88,-167.57 154,-164.24 159,-161.5 179.12,-150.48 186.88,-153.52 207,-142.5 209.03,-141.39 211.08,-140.18 213.12,-138.91"/>
<polygon fill="black" stroke="black" points="214.49,-141.54 220.87,-133.08 210.61,-135.71 214.49,-141.54"/>
</g>
<!-- 2 -->
<g id="node3" class="node">
<title>2</title>
<ellipse fill="#0000ff" stroke="black" cx="27" cy="-27" rx="27" ry="27"/>
<text text-anchor="middle" x="27" y="-21.95" font-family="Times,serif" font-size="14.00" fill="#ffffff">2</text>
</g>
<!-- 1&#45;&gt;2 -->
<g id="edge2" class="edge">
<title>1&#45;&gt;2</title>
<path fill="none" stroke="black" d="M27,-88.08C27,-80.87 27,-72.92 27,-65.23"/>
<polygon fill="black" stroke="black" points="30.5,-65.26 27,-55.26 23.5,-65.26 30.5,-65.26"/>
<text text-anchor="middle" x="40.5" y="-66.2" font-family="Times,serif" font-size="14.00">d3v2</text>
</g>
<!-- 4 -->
<g id="node5" class="node">
<title>4</title>
<ellipse fill="#0000ff" stroke="black" cx="99" cy="-27" rx="27" ry="27"/>
<text text-anchor="middle" x="99" y="-21.95" font-family="Times,serif" font-size="14.00" fill="#ffffff">4</text>
</g>
<!-- 3&#45;&gt;4 -->
<g id="edge4" class="edge">
<title>3&#45;&gt;4</title>
<path fill="none" stroke="black" d="M99,-88.08C99,-80.87 99,-72.92 99,-65.23"/>
<polygon fill="black" stroke="black" points="102.5,-65.26 99,-55.26 95.5,-65.26 102.5,-65.26"/>
<text text-anchor="middle" x="112.5" y="-66.2" font-family="Times,serif" font-size="14.00">d7v2</text>
</g>
<!-- 6 -->
<g id="node7" class="node">
<title>6</title>
<ellipse fill="#0000ff" stroke="black" cx="171" cy="-27" rx="27" ry="27"/>
<text text-anchor="middle" x="171" y="-21.95" font-family="Times,serif" font-size="14.00" fill="#ffffff">6</text>
</g>
<!-- 5&#45;&gt;6 -->
<g id="edge6" class="edge">
<title>5&#45;&gt;6</title>
<path fill="none" stroke="black" d="M171,-88.08C171,-80.87 171,-72.92 171,-65.23"/>
<polygon fill="black" stroke="black" points="174.5,-65.26 171,-55.26 167.5,-65.26 174.5,-65.26"/>
<text text-anchor="middle" x="187.88" y="-66.2" font-family="Times,serif" font-size="14.00">d10v2</text>
</g>
<!-- 8 -->
<g id="node9" class="node">
<title>8</title>
<ellipse fill="#0000ff" stroke="black" cx="243" cy="-27" rx="27" ry="27"/>
<text text-anchor="middle" x="243" y="-21.95" font-family="Times,serif" font-size="14.00" fill="#ffffff">8</text>
</g>
<!-- 7&#45;&gt;8 -->
<g id="edge8" class="edge">
<title>7&#45;&gt;8</title>
<path fill="none" stroke="black" d="M243,-88.08C243,-80.87 243,-72.92 243,-65.23"/>
<polygon fill="black" stroke="black" points="246.5,-65.26 243,-55.26 239.5,-65.26 246.5,-65.26"/>
<text text-anchor="middle" x="259.88" y="-66.2" font-family="Times,serif" font-size="14.00">d12v2</text>
</g>
<!-- key -->
<g id="node10" class="node">
<title>key</title>
<polygon fill="none" stroke="black" points="175.75,-177.25 175.75,-199.75 308.5,-199.75 308.5,-177.25 175.75,-177.25"/>
<text text-anchor="start" x="178.75" y="-183.45" font-family="Times,serif" font-size="14.00">matmul_tasks.multiply</text>
<polygon fill="#0000ff" stroke="none" points="308.5,-177.25 308.5,-199.75 318.25,-199.75 318.25,-177.25 308.5,-177.25"/>
<polygon fill="none" stroke="black" points="308.5,-177.25 308.5,-199.75 318.25,-199.75 318.25,-177.25 308.5,-177.25"/>
<text text-anchor="start" x="311.5" y="-183.45" font-family="Times,serif" font-size="14.00"> </text>
</g>
</g>
</svg>
